<svg width="180" height="47" viewBox="0 0 180 47" fill="none" xmlns="http://www.w3.org/2000/svg">
<path d="M0.5 23.25C0.5 10.5475 10.7975 0.25 23.5 0.25H156.5C169.203 0.25 179.5 10.5475 179.5 23.25V23.25C179.5 35.9525 169.203 46.25 156.5 46.25H23.5C10.7975 46.25 0.5 35.9525 0.5 23.25V23.25Z" fill="white"/>
<path d="M4 23.25C4 12.4804 12.7304 3.75 23.5 3.75H156.5C167.27 3.75 176 12.4804 176 23.25C176 34.0196 167.27 42.75 156.5 42.75H23.5C12.7305 42.75 4 34.0196 4 23.25Z" fill="white"/>
<path d="M4 23.25C4 12.4804 12.7304 3.75 23.5 3.75H156.5C167.27 3.75 176 12.4804 176 23.25C176 34.0196 167.27 42.75 156.5 42.75H23.5C12.7305 42.75 4 34.0196 4 23.25Z" stroke="#747775"/>
<path fill-rule="evenodd" clip-rule="evenodd" d="M33.14 23.4545C33.14 22.8164 33.0827 22.2027 32.9764 21.6136H24.5V25.095H29.3436C29.135 26.22 28.5009 27.1732 27.5477 27.8114V30.0695H30.4564C32.1582 28.5027 33.14 26.1954 33.14 23.4545Z" fill="#4285F4"/>
<path fill-rule="evenodd" clip-rule="evenodd" d="M24.5 32.25C26.93 32.25 28.9673 31.4441 30.4564 30.0695L27.5477 27.8114C26.7418 28.3514 25.7109 28.6704 24.5 28.6704C22.1559 28.6704 20.1718 27.0873 19.4641 24.96H16.4573V27.2918C17.9382 30.2332 20.9818 32.25 24.5 32.25Z" fill="#34A853"/>
<path fill-rule="evenodd" clip-rule="evenodd" d="M19.4641 24.96C19.2841 24.42 19.1818 23.8432 19.1818 23.25C19.1818 22.6568 19.2841 22.08 19.4641 21.54V19.2082H16.4573C15.8477 20.4232 15.5 21.7977 15.5 23.25C15.5 24.7023 15.8477 26.0768 16.4573 27.2918L19.4641 24.96Z" fill="#FBBC05"/>
<path fill-rule="evenodd" clip-rule="evenodd" d="M24.5 17.8295C25.8214 17.8295 27.0077 18.2836 27.9405 19.1755L30.5218 16.5941C28.9632 15.1418 26.9259 14.25 24.5 14.25C20.9818 14.25 17.9382 16.2668 16.4573 19.2082L19.4641 21.54C20.1718 19.4127 22.1559 17.8295 24.5 17.8295Z" fill="#EA4335"/>
<path d="M49.748 25.6865C49.748 25.4814 49.7161 25.2992 49.6523 25.1396C49.5931 24.9801 49.486 24.8343 49.3311 24.7021C49.1761 24.57 48.9574 24.4424 48.6748 24.3193C48.3968 24.1917 48.0413 24.0618 47.6084 23.9297C47.1344 23.7839 46.6969 23.6221 46.2959 23.4443C45.8994 23.262 45.5531 23.0524 45.2568 22.8154C44.9606 22.5739 44.7305 22.2982 44.5664 21.9883C44.4023 21.6738 44.3203 21.3115 44.3203 20.9014C44.3203 20.4958 44.4046 20.1266 44.5732 19.7939C44.7464 19.4613 44.9902 19.1742 45.3047 18.9326C45.6237 18.6865 45.9997 18.4974 46.4326 18.3652C46.8656 18.2285 47.3441 18.1602 47.8682 18.1602C48.6064 18.1602 49.2422 18.2969 49.7754 18.5703C50.3132 18.8438 50.7256 19.2106 51.0127 19.6709C51.3044 20.1312 51.4502 20.6393 51.4502 21.1953H49.748C49.748 20.8672 49.6774 20.5778 49.5361 20.3271C49.3994 20.0719 49.1898 19.8714 48.9072 19.7256C48.6292 19.5798 48.276 19.5068 47.8477 19.5068C47.4421 19.5068 47.1048 19.5684 46.8359 19.6914C46.5671 19.8145 46.3665 19.9808 46.2344 20.1904C46.1022 20.4001 46.0361 20.637 46.0361 20.9014C46.0361 21.0882 46.0794 21.2591 46.166 21.4141C46.2526 21.5645 46.3848 21.7057 46.5625 21.8379C46.7402 21.9655 46.9635 22.0863 47.2324 22.2002C47.5013 22.3141 47.818 22.4235 48.1826 22.5283C48.734 22.6924 49.2148 22.8747 49.625 23.0752C50.0352 23.2712 50.377 23.4945 50.6504 23.7451C50.9238 23.9958 51.1289 24.2806 51.2656 24.5996C51.4023 24.9141 51.4707 25.2718 51.4707 25.6729C51.4707 26.0921 51.3864 26.4704 51.2178 26.8076C51.0492 27.1403 50.8076 27.4251 50.4932 27.6621C50.1833 27.8945 49.8096 28.0745 49.3721 28.2021C48.9391 28.3252 48.4561 28.3867 47.9229 28.3867C47.4443 28.3867 46.9727 28.3229 46.5078 28.1953C46.0475 28.0677 45.6283 27.874 45.25 27.6143C44.8717 27.3499 44.571 27.0218 44.3477 26.6299C44.1243 26.2334 44.0127 25.7708 44.0127 25.2422H45.7285C45.7285 25.5658 45.7832 25.8415 45.8926 26.0693C46.0065 26.2972 46.1637 26.484 46.3643 26.6299C46.5648 26.7712 46.7972 26.876 47.0615 26.9443C47.3304 27.0127 47.6175 27.0469 47.9229 27.0469C48.3239 27.0469 48.6589 26.9899 48.9277 26.876C49.2012 26.762 49.4062 26.6025 49.543 26.3975C49.6797 26.1924 49.748 25.9554 49.748 25.6865ZM54.5879 20.8535V28.25H52.9336V20.8535H54.5879ZM52.8242 18.9121C52.8242 18.6615 52.9062 18.4541 53.0703 18.29C53.2389 18.1214 53.4714 18.0371 53.7676 18.0371C54.0592 18.0371 54.2894 18.1214 54.458 18.29C54.6266 18.4541 54.7109 18.6615 54.7109 18.9121C54.7109 19.1582 54.6266 19.3633 54.458 19.5273C54.2894 19.6914 54.0592 19.7734 53.7676 19.7734C53.4714 19.7734 53.2389 19.6914 53.0703 19.5273C52.9062 19.3633 52.8242 19.1582 52.8242 18.9121ZM61.1299 20.8535H62.627V28.0449C62.627 28.7103 62.4857 29.2754 62.2031 29.7402C61.9206 30.2051 61.5264 30.5583 61.0205 30.7998C60.5146 31.0459 59.929 31.1689 59.2637 31.1689C58.9811 31.1689 58.6667 31.1279 58.3203 31.0459C57.9785 30.9639 57.6458 30.8317 57.3223 30.6494C57.0033 30.4717 56.7367 30.237 56.5225 29.9453L57.2949 28.9746C57.5592 29.2891 57.8509 29.5192 58.1699 29.665C58.4889 29.8109 58.8239 29.8838 59.1748 29.8838C59.5531 29.8838 59.8743 29.8132 60.1387 29.6719C60.4076 29.5352 60.6149 29.3324 60.7607 29.0635C60.9066 28.7946 60.9795 28.4665 60.9795 28.0791V22.5283L61.1299 20.8535ZM56.1055 24.6338V24.4902C56.1055 23.9297 56.1738 23.4193 56.3105 22.959C56.4473 22.4941 56.6432 22.0954 56.8984 21.7627C57.1536 21.4255 57.4635 21.168 57.8281 20.9902C58.1927 20.8079 58.6051 20.7168 59.0654 20.7168C59.5439 20.7168 59.9518 20.8034 60.2891 20.9766C60.6309 21.1497 60.9157 21.3981 61.1436 21.7217C61.3714 22.0407 61.5492 22.4235 61.6768 22.8701C61.8089 23.3122 61.9069 23.8044 61.9707 24.3467V24.8047C61.9115 25.3333 61.8112 25.8164 61.6699 26.2539C61.5286 26.6914 61.3418 27.0697 61.1094 27.3887C60.877 27.7077 60.5898 27.9538 60.248 28.127C59.9108 28.3001 59.512 28.3867 59.0518 28.3867C58.6006 28.3867 58.1927 28.2933 57.8281 28.1064C57.4681 27.9196 57.1582 27.6576 56.8984 27.3203C56.6432 26.9831 56.4473 26.5866 56.3105 26.1309C56.1738 25.6706 56.1055 25.1715 56.1055 24.6338ZM57.7529 24.4902V24.6338C57.7529 24.971 57.7848 25.2855 57.8486 25.5771C57.917 25.8688 58.0195 26.1263 58.1562 26.3496C58.2975 26.5684 58.4753 26.7415 58.6895 26.8691C58.9082 26.9922 59.1657 27.0537 59.4619 27.0537C59.8493 27.0537 60.166 26.9717 60.4121 26.8076C60.6628 26.6436 60.8542 26.4225 60.9863 26.1445C61.123 25.862 61.2188 25.5475 61.2734 25.2012V23.9639C61.2461 23.695 61.1891 23.4443 61.1025 23.2119C61.0205 22.9795 60.9089 22.7767 60.7676 22.6035C60.6263 22.4258 60.4486 22.2891 60.2344 22.1934C60.0202 22.0931 59.7673 22.043 59.4756 22.043C59.1794 22.043 58.9219 22.1068 58.7031 22.2344C58.4844 22.362 58.3044 22.5374 58.1631 22.7607C58.0264 22.984 57.9238 23.2438 57.8555 23.54C57.7871 23.8363 57.7529 24.153 57.7529 24.4902ZM65.9697 22.4326V28.25H64.3223V20.8535H65.874L65.9697 22.4326ZM65.6758 24.2783L65.1426 24.2715C65.1471 23.7474 65.2201 23.2666 65.3613 22.8291C65.5072 22.3916 65.7077 22.0156 65.9629 21.7012C66.2227 21.3867 66.5326 21.1452 66.8926 20.9766C67.2526 20.8034 67.6536 20.7168 68.0957 20.7168C68.4512 20.7168 68.7725 20.7669 69.0596 20.8672C69.3512 20.9629 69.5996 21.1201 69.8047 21.3389C70.0143 21.5576 70.1738 21.8424 70.2832 22.1934C70.3926 22.5397 70.4473 22.9658 70.4473 23.4717V28.25H68.793V23.4648C68.793 23.1094 68.7406 22.8291 68.6357 22.624C68.5355 22.4144 68.3874 22.2663 68.1914 22.1797C68 22.0885 67.7607 22.043 67.4736 22.043C67.1911 22.043 66.9382 22.1022 66.7148 22.2207C66.4915 22.3392 66.3024 22.501 66.1475 22.7061C65.9971 22.9111 65.8809 23.1481 65.7988 23.417C65.7168 23.6859 65.6758 23.973 65.6758 24.2783ZM77.3789 20.8535V28.25H75.7246V20.8535H77.3789ZM75.6152 18.9121C75.6152 18.6615 75.6973 18.4541 75.8613 18.29C76.0299 18.1214 76.2624 18.0371 76.5586 18.0371C76.8503 18.0371 77.0804 18.1214 77.249 18.29C77.4176 18.4541 77.502 18.6615 77.502 18.9121C77.502 19.1582 77.4176 19.3633 77.249 19.5273C77.0804 19.6914 76.8503 19.7734 76.5586 19.7734C76.2624 19.7734 76.0299 19.6914 75.8613 19.5273C75.6973 19.3633 75.6152 19.1582 75.6152 18.9121ZM80.8174 22.4326V28.25H79.1699V20.8535H80.7217L80.8174 22.4326ZM80.5234 24.2783L79.9902 24.2715C79.9948 23.7474 80.0677 23.2666 80.209 22.8291C80.3548 22.3916 80.5553 22.0156 80.8105 21.7012C81.0703 21.3867 81.3802 21.1452 81.7402 20.9766C82.1003 20.8034 82.5013 20.7168 82.9434 20.7168C83.2988 20.7168 83.6201 20.7669 83.9072 20.8672C84.1989 20.9629 84.4473 21.1201 84.6523 21.3389C84.862 21.5576 85.0215 21.8424 85.1309 22.1934C85.2402 22.5397 85.2949 22.9658 85.2949 23.4717V28.25H83.6406V23.4648C83.6406 23.1094 83.5882 22.8291 83.4834 22.624C83.3831 22.4144 83.235 22.2663 83.0391 22.1797C82.8477 22.0885 82.6084 22.043 82.3213 22.043C82.0387 22.043 81.7858 22.1022 81.5625 22.2207C81.3392 22.3392 81.1501 22.501 80.9951 22.7061C80.8447 22.9111 80.7285 23.1481 80.6465 23.417C80.5645 23.6859 80.5234 23.973 80.5234 24.2783ZM92.4727 26.6094L94.1816 20.8535H95.2344L94.9473 22.5762L93.2246 28.25H92.2812L92.4727 26.6094ZM91.4678 20.8535L92.8008 26.6367L92.9102 28.25H91.8574L89.8545 20.8535H91.4678ZM96.834 26.5684L98.126 20.8535H99.7324L97.7363 28.25H96.6836L96.834 26.5684ZM95.4121 20.8535L97.1006 26.541L97.3125 28.25H96.3691L94.626 22.5693L94.3389 20.8535H95.4121ZM102.617 20.8535V28.25H100.963V20.8535H102.617ZM100.854 18.9121C100.854 18.6615 100.936 18.4541 101.1 18.29C101.268 18.1214 101.501 18.0371 101.797 18.0371C102.089 18.0371 102.319 18.1214 102.487 18.29C102.656 18.4541 102.74 18.6615 102.74 18.9121C102.74 19.1582 102.656 19.3633 102.487 19.5273C102.319 19.6914 102.089 19.7734 101.797 19.7734C101.501 19.7734 101.268 19.6914 101.1 19.5273C100.936 19.3633 100.854 19.1582 100.854 18.9121ZM107.812 20.8535V22.0566H103.643V20.8535H107.812ZM104.846 19.042H106.493V26.2061C106.493 26.4339 106.525 26.6094 106.589 26.7324C106.657 26.8509 106.751 26.9307 106.869 26.9717C106.988 27.0127 107.127 27.0332 107.286 27.0332C107.4 27.0332 107.509 27.0264 107.614 27.0127C107.719 26.999 107.803 26.9854 107.867 26.9717L107.874 28.2295C107.737 28.2705 107.578 28.307 107.396 28.3389C107.218 28.3708 107.013 28.3867 106.78 28.3867C106.402 28.3867 106.067 28.3206 105.775 28.1885C105.484 28.0518 105.256 27.8307 105.092 27.5254C104.928 27.2201 104.846 26.8145 104.846 26.3086V19.042ZM110.711 17.75V28.25H109.07V17.75H110.711ZM110.424 24.2783L109.891 24.2715C109.895 23.7611 109.966 23.2894 110.103 22.8564C110.244 22.4235 110.44 22.0475 110.69 21.7285C110.946 21.4049 111.251 21.1566 111.606 20.9834C111.962 20.8057 112.356 20.7168 112.789 20.7168C113.154 20.7168 113.482 20.7669 113.773 20.8672C114.07 20.9674 114.325 21.1292 114.539 21.3525C114.753 21.5713 114.915 21.8584 115.024 22.2139C115.138 22.5648 115.195 22.9932 115.195 23.499V28.25H113.541V23.4854C113.541 23.1299 113.489 22.8473 113.384 22.6377C113.284 22.4281 113.135 22.2777 112.939 22.1865C112.743 22.0908 112.504 22.043 112.222 22.043C111.925 22.043 111.663 22.1022 111.436 22.2207C111.212 22.3392 111.025 22.501 110.875 22.7061C110.725 22.9111 110.611 23.1481 110.533 23.417C110.46 23.6859 110.424 23.973 110.424 24.2783ZM128.156 23.1641V26.9648C128.015 27.1517 127.794 27.3568 127.493 27.5801C127.197 27.7988 126.803 27.988 126.311 28.1475C125.818 28.307 125.205 28.3867 124.472 28.3867C123.847 28.3867 123.275 28.2819 122.756 28.0723C122.236 27.8581 121.787 27.5459 121.409 27.1357C121.035 26.7256 120.746 26.2266 120.541 25.6387C120.336 25.0462 120.233 24.3717 120.233 23.6152V22.9248C120.233 22.1729 120.327 21.5029 120.514 20.915C120.705 20.3226 120.979 19.8213 121.334 19.4111C121.689 19.001 122.118 18.6911 122.619 18.4814C123.125 18.2673 123.697 18.1602 124.335 18.1602C125.151 18.1602 125.825 18.2969 126.358 18.5703C126.896 18.8392 127.311 19.2129 127.603 19.6914C127.894 20.1699 128.079 20.7168 128.156 21.332H126.475C126.42 20.9857 126.313 20.6758 126.153 20.4023C125.998 20.1289 125.775 19.9147 125.483 19.7598C125.196 19.6003 124.823 19.5205 124.362 19.5205C123.966 19.5205 123.617 19.5957 123.316 19.7461C123.016 19.8965 122.765 20.1175 122.564 20.4092C122.368 20.7008 122.22 21.0563 122.12 21.4756C122.02 21.8949 121.97 22.3734 121.97 22.9111V23.6152C121.97 24.1621 122.027 24.6475 122.141 25.0713C122.259 25.4951 122.428 25.8529 122.646 26.1445C122.87 26.4362 123.141 26.6572 123.46 26.8076C123.779 26.9535 124.139 27.0264 124.54 27.0264C124.932 27.0264 125.253 26.9945 125.504 26.9307C125.755 26.8623 125.953 26.7826 126.099 26.6914C126.249 26.5957 126.365 26.5046 126.447 26.418V24.4424H124.376V23.1641H128.156ZM129.578 24.6338V24.4766C129.578 23.9434 129.656 23.4489 129.811 22.9932C129.965 22.5329 130.189 22.1341 130.48 21.7969C130.777 21.4551 131.137 21.1908 131.561 21.0039C131.989 20.8125 132.472 20.7168 133.01 20.7168C133.552 20.7168 134.035 20.8125 134.459 21.0039C134.887 21.1908 135.25 21.4551 135.546 21.7969C135.842 22.1341 136.068 22.5329 136.223 22.9932C136.378 23.4489 136.455 23.9434 136.455 24.4766V24.6338C136.455 25.167 136.378 25.6615 136.223 26.1172C136.068 26.5729 135.842 26.9717 135.546 27.3135C135.25 27.6507 134.89 27.915 134.466 28.1064C134.042 28.2933 133.561 28.3867 133.023 28.3867C132.481 28.3867 131.996 28.2933 131.567 28.1064C131.144 27.915 130.784 27.6507 130.487 27.3135C130.191 26.9717 129.965 26.5729 129.811 26.1172C129.656 25.6615 129.578 25.167 129.578 24.6338ZM131.226 24.4766V24.6338C131.226 24.9665 131.26 25.2809 131.328 25.5771C131.396 25.8734 131.504 26.1331 131.649 26.3564C131.795 26.5798 131.982 26.7552 132.21 26.8828C132.438 27.0104 132.709 27.0742 133.023 27.0742C133.329 27.0742 133.593 27.0104 133.816 26.8828C134.044 26.7552 134.231 26.5798 134.377 26.3564C134.523 26.1331 134.63 25.8734 134.698 25.5771C134.771 25.2809 134.808 24.9665 134.808 24.6338V24.4766C134.808 24.1484 134.771 23.8385 134.698 23.5469C134.63 23.2507 134.521 22.9886 134.37 22.7607C134.224 22.5329 134.037 22.3551 133.81 22.2275C133.586 22.0954 133.32 22.0293 133.01 22.0293C132.7 22.0293 132.431 22.0954 132.203 22.2275C131.98 22.3551 131.795 22.5329 131.649 22.7607C131.504 22.9886 131.396 23.2507 131.328 23.5469C131.26 23.8385 131.226 24.1484 131.226 24.4766ZM137.521 24.6338V24.4766C137.521 23.9434 137.599 23.4489 137.754 22.9932C137.909 22.5329 138.132 22.1341 138.424 21.7969C138.72 21.4551 139.08 21.1908 139.504 21.0039C139.932 20.8125 140.415 20.7168 140.953 20.7168C141.495 20.7168 141.979 20.8125 142.402 21.0039C142.831 21.1908 143.193 21.4551 143.489 21.7969C143.785 22.1341 144.011 22.5329 144.166 22.9932C144.321 23.4489 144.398 23.9434 144.398 24.4766V24.6338C144.398 25.167 144.321 25.6615 144.166 26.1172C144.011 26.5729 143.785 26.9717 143.489 27.3135C143.193 27.6507 142.833 27.915 142.409 28.1064C141.985 28.2933 141.505 28.3867 140.967 28.3867C140.424 28.3867 139.939 28.2933 139.511 28.1064C139.087 27.915 138.727 27.6507 138.431 27.3135C138.134 26.9717 137.909 26.5729 137.754 26.1172C137.599 25.6615 137.521 25.167 137.521 24.6338ZM139.169 24.4766V24.6338C139.169 24.9665 139.203 25.2809 139.271 25.5771C139.34 25.8734 139.447 26.1331 139.593 26.3564C139.739 26.5798 139.925 26.7552 140.153 26.8828C140.381 27.0104 140.652 27.0742 140.967 27.0742C141.272 27.0742 141.536 27.0104 141.76 26.8828C141.988 26.7552 142.174 26.5798 142.32 26.3564C142.466 26.1331 142.573 25.8734 142.642 25.5771C142.715 25.2809 142.751 24.9665 142.751 24.6338V24.4766C142.751 24.1484 142.715 23.8385 142.642 23.5469C142.573 23.2507 142.464 22.9886 142.313 22.7607C142.168 22.5329 141.981 22.3551 141.753 22.2275C141.53 22.0954 141.263 22.0293 140.953 22.0293C140.643 22.0293 140.374 22.0954 140.146 22.2275C139.923 22.3551 139.739 22.5329 139.593 22.7607C139.447 22.9886 139.34 23.2507 139.271 23.5469C139.203 23.8385 139.169 24.1484 139.169 24.4766ZM150.517 20.8535H152.014V28.0449C152.014 28.7103 151.872 29.2754 151.59 29.7402C151.307 30.2051 150.913 30.5583 150.407 30.7998C149.901 31.0459 149.316 31.1689 148.65 31.1689C148.368 31.1689 148.053 31.1279 147.707 31.0459C147.365 30.9639 147.033 30.8317 146.709 30.6494C146.39 30.4717 146.123 30.237 145.909 29.9453L146.682 28.9746C146.946 29.2891 147.238 29.5192 147.557 29.665C147.876 29.8109 148.211 29.8838 148.562 29.8838C148.94 29.8838 149.261 29.8132 149.525 29.6719C149.794 29.5352 150.002 29.3324 150.147 29.0635C150.293 28.7946 150.366 28.4665 150.366 28.0791V22.5283L150.517 20.8535ZM145.492 24.6338V24.4902C145.492 23.9297 145.561 23.4193 145.697 22.959C145.834 22.4941 146.03 22.0954 146.285 21.7627C146.54 21.4255 146.85 21.168 147.215 20.9902C147.579 20.8079 147.992 20.7168 148.452 20.7168C148.931 20.7168 149.339 20.8034 149.676 20.9766C150.018 21.1497 150.302 21.3981 150.53 21.7217C150.758 22.0407 150.936 22.4235 151.063 22.8701C151.196 23.3122 151.294 23.8044 151.357 24.3467V24.8047C151.298 25.3333 151.198 25.8164 151.057 26.2539C150.915 26.6914 150.729 27.0697 150.496 27.3887C150.264 27.7077 149.977 27.9538 149.635 28.127C149.298 28.3001 148.899 28.3867 148.438 28.3867C147.987 28.3867 147.579 28.2933 147.215 28.1064C146.855 27.9196 146.545 27.6576 146.285 27.3203C146.03 26.9831 145.834 26.5866 145.697 26.1309C145.561 25.6706 145.492 25.1715 145.492 24.6338ZM147.14 24.4902V24.6338C147.14 24.971 147.172 25.2855 147.235 25.5771C147.304 25.8688 147.406 26.1263 147.543 26.3496C147.684 26.5684 147.862 26.7415 148.076 26.8691C148.295 26.9922 148.552 27.0537 148.849 27.0537C149.236 27.0537 149.553 26.9717 149.799 26.8076C150.049 26.6436 150.241 26.4225 150.373 26.1445C150.51 25.862 150.605 25.5475 150.66 25.2012V23.9639C150.633 23.695 150.576 23.4443 150.489 23.2119C150.407 22.9795 150.296 22.7767 150.154 22.6035C150.013 22.4258 149.835 22.2891 149.621 22.1934C149.407 22.0931 149.154 22.043 148.862 22.043C148.566 22.043 148.309 22.1068 148.09 22.2344C147.871 22.362 147.691 22.5374 147.55 22.7607C147.413 22.984 147.311 23.2438 147.242 23.54C147.174 23.8363 147.14 24.153 147.14 24.4902ZM155.486 17.75V28.25H153.832V17.75H155.486ZM160.552 28.3867C160.005 28.3867 159.51 28.2979 159.068 28.1201C158.631 27.9378 158.257 27.6849 157.947 27.3613C157.642 27.0378 157.407 26.6572 157.243 26.2197C157.079 25.7822 156.997 25.3105 156.997 24.8047V24.5312C156.997 23.9525 157.081 23.4284 157.25 22.959C157.419 22.4896 157.653 22.0885 157.954 21.7559C158.255 21.4186 158.61 21.1611 159.021 20.9834C159.431 20.8057 159.875 20.7168 160.354 20.7168C160.882 20.7168 161.345 20.8057 161.741 20.9834C162.138 21.1611 162.466 21.4118 162.726 21.7354C162.99 22.0544 163.186 22.4349 163.313 22.877C163.446 23.319 163.512 23.8066 163.512 24.3398V25.0439H157.797V23.8613H161.885V23.7314C161.876 23.4352 161.816 23.1572 161.707 22.8975C161.602 22.6377 161.44 22.4281 161.222 22.2686C161.003 22.109 160.711 22.0293 160.347 22.0293C160.073 22.0293 159.829 22.0885 159.615 22.207C159.406 22.321 159.23 22.4873 159.089 22.7061C158.948 22.9248 158.838 23.1891 158.761 23.499C158.688 23.8044 158.651 24.1484 158.651 24.5312V24.8047C158.651 25.1283 158.695 25.429 158.781 25.707C158.872 25.9805 159.005 26.2197 159.178 26.4248C159.351 26.6299 159.561 26.7917 159.807 26.9102C160.053 27.0241 160.333 27.0811 160.647 27.0811C161.044 27.0811 161.397 27.0013 161.707 26.8418C162.017 26.6823 162.286 26.4567 162.514 26.165L163.382 27.0059C163.222 27.2383 163.015 27.4616 162.76 27.6758C162.505 27.8854 162.192 28.0563 161.823 28.1885C161.459 28.3206 161.035 28.3867 160.552 28.3867Z" fill="#1F1F1F"/>
</svg>
